<?xml version="1.0" encoding="UTF-8" standalone="no"?>
<!-- Created with Inkscape (http://www.inkscape.org/) -->

<svg
   xmlns:dc="http://purl.org/dc/elements/1.1/"
   xmlns:cc="http://creativecommons.org/ns#"
   xmlns:rdf="http://www.w3.org/1999/02/22-rdf-syntax-ns#"
   xmlns:svg="http://www.w3.org/2000/svg"
   xmlns="http://www.w3.org/2000/svg"
   xmlns:xlink="http://www.w3.org/1999/xlink"
   xmlns:sodipodi="http://sodipodi.sourceforge.net/DTD/sodipodi-0.dtd"
   xmlns:inkscape="http://www.inkscape.org/namespaces/inkscape"
   width="210mm"
   height="297mm"
   id="svg2"
   version="1.1"
   inkscape:version="0.48.4 r9939"
   sodipodi:docname="logo.svg"
   inkscape:export-filename="/home/malko/git/whiteWalker/public/logo.png"
   inkscape:export-xdpi="18.185385"
   inkscape:export-ydpi="18.185385">
  <defs
     id="defs4">
    <linearGradient
       id="linearGradient3907">
      <stop
         style="stop-color:#ffffff;stop-opacity:1;"
         offset="0"
         id="stop3909" />
      <stop
         style="stop-color:#e6f5ff;stop-opacity:1;"
         offset="1"
         id="stop3911" />
    </linearGradient>
    <radialGradient
       inkscape:collect="always"
       xlink:href="#linearGradient3907"
       id="radialGradient3915"
       cx="375.9191"
       cy="347.70883"
       fx="375.9191"
       fy="347.70883"
       r="131.25882"
       gradientTransform="matrix(1.3314193,0.10255321,-0.05426171,0.5753888,-101.26823,67.244946)"
       gradientUnits="userSpaceOnUse" />
  </defs>
  <sodipodi:namedview
     id="base"
     pagecolor="#ffffff"
     bordercolor="#666666"
     borderopacity="1.0"
     inkscape:pageopacity="0.0"
     inkscape:pageshadow="2"
     inkscape:zoom="0.7"
     inkscape:cx="50.592388"
     inkscape:cy="421.50158"
     inkscape:document-units="px"
     inkscape:current-layer="layer1"
     showgrid="false"
     inkscape:window-width="1920"
     inkscape:window-height="1032"
     inkscape:window-x="0"
     inkscape:window-y="48"
     inkscape:window-maximized="1" />
  <metadata
     id="metadata7">
    <rdf:RDF>
      <cc:Work
         rdf:about="">
        <dc:format>image/svg+xml</dc:format>
        <dc:type
           rdf:resource="http://purl.org/dc/dcmitype/StillImage" />
        <dc:title></dc:title>
      </cc:Work>
    </rdf:RDF>
  </metadata>
  <g
     inkscape:label="Calque 1"
     inkscape:groupmode="layer"
     id="layer1">
    <path
       style="fill:#e5e5e5;fill-opacity:1;stroke:#000000;stroke-width:1px;stroke-linecap:butt;stroke-linejoin:miter;stroke-opacity:1"
       d="m 538.27313,458.94234 9.92366,16.79389 9.92367,-12.9771 10.68702,13.74046 12.21374,-11.45038 9.1603,15.26717 12.21375,-15.26717 c 7.567,-41.27429 8.91661,-93.42901 8.39695,-148.85497 2.32614,-1.81289 -17.56796,-64.67904 -33.5878,-64.88549 z"
       id="path3887-5"
       inkscape:connector-curvature="0"
       sodipodi:nodetypes="cccccccccc" />
    <path
       style="fill:#e5e5e5;fill-opacity:1;stroke:#000000;stroke-width:1px;stroke-linecap:butt;stroke-linejoin:miter;stroke-opacity:1"
       d="M 328.25 254.71875 C 322.30715 256.31133 318.60644 261.70645 315.49729 266.62474 C 306.57671 280.96336 300.83462 297.0055 296.24205 313.17856 C 294.61289 320.45745 295.59327 327.95452 295.34701 335.33745 C 295.39556 373.09898 295.97364 410.97981 300.8211 448.4797 C 301.69691 454.50202 302.27596 460.64178 303.86792 466.50471 C 304.29635 466.98248 304.50287 468.55612 304.4375 468.53594 C 305.00006 471.56459 307.87716 473.30885 309.56303 475.70189 C 311.61764 478.13328 313.5447 480.66939 315.53125 483.15625 C 316.98969 483.49835 316.99492 481.42135 317.81322 480.68656 C 320.27131 476.59312 322.72941 472.49969 325.1875 468.40625 C 329.26042 472.21875 333.33333 476.03125 337.40625 479.84375 C 340.96875 475.26042 344.53125 470.67708 348.09375 466.09375 C 351.39583 470.42708 354.69792 474.76042 358 479.09375 C 361.3125 473.48958 364.625 467.88542 367.9375 462.28125 C 354.95833 393.07292 341.97917 323.86458 329 254.65625 C 328.74455 254.64041 328.49952 254.66238 328.25 254.71875 z "
       id="path3887"
       inkscape:connector-curvature="0"
       sodipodi:nodetypes="cccccccccc" />
    <path
       transform="matrix(1.1743168,0,0,1.2993738,9.7263681,-64.172727)"
       style="fill:url(#radialGradient3915);fill-opacity:1;stroke:#000000;stroke-width:1.33817577000000010;stroke-linecap:round;stroke-linejoin:round;stroke-miterlimit:4;stroke-opacity:1"
       d="M 367.15625 217.09375 C 353.84286 217.25195 340.47547 217.42798 327.27024 219.29676 C 314.48128 221.15933 301.84981 225.04316 290.80835 231.87275 C 277.91886 239.80452 267.05734 251.01724 259.52618 264.14311 C 252.06589 277.17478 248.20505 292.17157 248.11175 307.16909 C 248.0241 317.49951 249.52176 327.83804 252.35737 337.76602 C 254.99534 346.44778 258.98638 354.73377 264.39485 362.03439 C 275.31438 377.32269 290.59519 389.32469 307.7653 396.86491 C 319.15036 401.98894 330.72732 406.75249 342.65832 410.46065 C 354.10445 413.9639 365.94297 416.53241 377.94393 416.84944 C 389.72503 417.12421 401.45742 414.91766 412.61909 411.24224 C 428.53567 406.2891 443.82698 399.56145 458.94487 392.59007 C 469.63562 387.27254 480.0753 380.76581 487.75121 371.45948 C 496.37591 361.00741 501.62149 348.22433 505.28945 335.29487 C 509.80011 319.18764 510.82379 301.87466 506.65193 285.58132 C 502.03732 267.15864 491.25284 250.14587 475.88585 238.85687 C 469.7253 234.31533 462.92183 230.69539 455.82601 227.85085 C 447.22635 223.98573 438.25572 220.88532 429.0215 218.94596 C 423.73111 217.86465 418.35996 217.09496 412.94765 217.17496 C 397.68431 217.16783 382.42044 216.98202 367.15625 217.09375 z "
       id="path2987"
       inkscape:connector-curvature="0"
       sodipodi:nodetypes="cccccccccccccccccccccccccc" />
    <path
       style="fill:#000000;stroke:#000000;stroke-width:1px;stroke-linecap:butt;stroke-linejoin:miter;stroke-opacity:1"
       d="m 344.63987,318.22807 c 31.97431,-4.11405 48.31902,7.72315 66.19947,21.72978 2.7521,16.21723 -4.47804,32.21679 -14.85954,35.60213 -30.90388,3.67486 -42.29784,4.22762 -61.71122,-18.87717 -3.97216,-14.61613 2.12988,-27.90981 10.37129,-38.45474 z"
       id="path3757"
       inkscape:connector-curvature="0"
       sodipodi:nodetypes="ccccc" />
    <path
       sodipodi:type="arc"
       style="fill:#00aeff;fill-opacity:1;stroke:none;stroke-width:1.65300000000000002;stroke-linecap:round;stroke-linejoin:round;stroke-miterlimit:4;stroke-opacity:1;stroke-dasharray:none"
       id="path3761"
       sodipodi:cx="379.38931"
       sodipodi:cy="348.92706"
       sodipodi:rx="18.32061"
       sodipodi:ry="19.465649"
       d="m 397.70992,348.92706 a 18.32061,19.465649 0 1 1 -36.64122,0 18.32061,19.465649 0 1 1 36.64122,0 z"
       transform="matrix(1.2226259,0,0,1.0722754,-88.660371,-26.745552)" />
    <path
       sodipodi:type="arc"
       style="fill:#000000;fill-opacity:1;stroke:none"
       id="path3781"
       sodipodi:cx="376.33588"
       sodipodi:cy="349.69043"
       sodipodi:rx="6.8702292"
       sodipodi:ry="6.4885497"
       d="m 383.20611,349.69043 a 6.8702292,6.4885497 0 1 1 -13.74046,0 6.8702292,6.4885497 0 1 1 13.74046,0 z"
       transform="translate(0,-2)" />
    <path
       style="fill:#000000;stroke:#000000;stroke-width:1px;stroke-linecap:butt;stroke-linejoin:miter;stroke-opacity:1"
       d="m 423.66412,424.88127 c 23.4908,-15.93939 46.79713,-7.48975 68.25512,4.22559 3.29288,11.8133 -2.60692,7.61512 -7.14011,9.64584 -16.79389,-7.25665 -31.16437,-19.00359 -51.19134,-2.42105 -7.30963,1.1836 -16.60224,0.46661 -9.92367,-11.45038 z"
       id="path3801"
       inkscape:connector-curvature="0"
       sodipodi:nodetypes="ccccc" />
    <path
       style="fill:#000000;stroke:#000000;stroke-width:1px;stroke-linecap:butt;stroke-linejoin:miter;stroke-opacity:1"
       d="m 567.28099,321.62852 c -31.97431,-4.11405 -48.31902,7.72315 -66.19947,21.72978 -2.7521,16.21723 4.47804,32.21679 14.85954,35.60213 30.90388,3.67486 42.29784,4.22762 61.71122,-18.87717 3.97216,-14.61613 -2.12988,-27.90981 -10.37129,-38.45474 z"
       id="path3757-1"
       inkscape:connector-curvature="0"
       sodipodi:nodetypes="ccccc" />
    <path
       sodipodi:type="arc"
       style="fill:#00aeff;fill-opacity:1;stroke:none"
       id="path3761-4"
       sodipodi:cx="379.38931"
       sodipodi:cy="348.92706"
       sodipodi:rx="18.32061"
       sodipodi:ry="19.465649"
       d="m 397.70992,348.92706 a 18.32061,19.465649 0 1 1 -36.64122,0 18.32061,19.465649 0 1 1 36.64122,0 z"
       transform="matrix(-1.2226259,0,0,1.0722754,1000.5812,-23.345106)" />
    <path
       transform="matrix(-1,0,0,1,911.92086,1.400454)"
       sodipodi:type="arc"
       style="fill:#000000;fill-opacity:1;stroke:none"
       id="path3781-8"
       sodipodi:cx="376.33588"
       sodipodi:cy="349.69043"
       sodipodi:rx="6.8702292"
       sodipodi:ry="6.4885497"
       d="m 383.20611,349.69043 a 6.8702292,6.4885497 0 1 1 -13.74046,0 6.8702292,6.4885497 0 1 1 13.74046,0 z" />
    <path
       style="fill:#000000;fill-opacity:1;stroke:#000000;stroke-width:1.653;stroke-linecap:round;stroke-linejoin:round;stroke-miterlimit:4;stroke-opacity:1;stroke-dasharray:none"
       id="path3833"
       d="m 460.15421,405.97092 c 1.94249,-1.30196 3.79327,-2.73797 5.6331,-4.18018 0.65031,-0.47935 1.32909,-0.91651 1.99202,-1.37776 0,0 10.55399,-4.11095 10.55399,-4.11095 l 0,0 c -0.70768,0.42209 -1.32994,0.9476 -2.06989,1.31783 -1.87766,1.36925 -3.66464,2.85893 -5.55091,4.21989 0,0 -10.55831,4.13117 -10.55831,4.13117 z"
       inkscape:connector-curvature="0" />
    <path
       style="fill:#000000;fill-opacity:1;stroke:#000000;stroke-width:1.653;stroke-linecap:round;stroke-linejoin:round;stroke-miterlimit:4;stroke-opacity:1;stroke-dasharray:none"
       id="path3833-9"
       d="m 454.89108,404.52487 c -1.94249,-1.30196 -3.79327,-2.73797 -5.6331,-4.18018 -0.65031,-0.47935 -1.32909,-0.91651 -1.99202,-1.37776 0,0 -10.55399,-4.11095 -10.55399,-4.11095 l 0,0 c 0.70768,0.42209 1.32994,0.9476 2.06989,1.31783 1.87766,1.36925 3.66464,2.85893 5.55091,4.21989 0,0 10.55831,4.13117 10.55831,4.13117 z"
       inkscape:connector-curvature="0" />
    <path
       style="fill:#e5e5e5;fill-opacity:1;stroke:#000000;stroke-width:1px;stroke-linecap:butt;stroke-linejoin:miter;stroke-opacity:1"
       d="m 600.38168,381.7515 c -12.56299,49.9238 -51.90736,76.29585 -87.40458,91.22137 -26.20368,10.94467 -32.97905,7.56947 -58.01527,20.61068 -14.723,-7.66886 -32.94574,-11.83797 -50.38168,-16.79389 -56.90109,-18.9803 -78.24144,-44.31974 -96.56489,-94.2748 38.59604,51.81579 68.96286,84.92167 129.38932,79.00763 9.99117,-2.63801 16.46844,-7.03296 18.32061,-13.74046 6.61578,8.69717 13.23155,10.94584 19.84733,13.74045 61.32493,7.35064 97.11835,-39.3876 124.80916,-79.77098 z"
       id="path3885"
       inkscape:connector-curvature="0"
       sodipodi:nodetypes="ccccccccc" />
    <path
       style="fill:#000000;fill-opacity:1;stroke:#000000;stroke-width:0;stroke-linecap:round;stroke-linejoin:round;stroke-miterlimit:4;stroke-opacity:1;stroke-dasharray:none"
       id="path3969"
       d="m 504.89114,375.75405 c 0.91445,0.79423 1.8527,1.55416 2.7302,2.39007 0.73123,0.57596 1.31645,1.30576 2.00725,1.92442 0.57635,0.50995 1.01185,1.14744 1.52951,1.71081 0.42359,0.49185 0.89625,0.91592 1.42625,1.28988 0.41171,0.3944 0.93574,0.62787 1.37678,0.98424 0.48483,0.38988 1.03949,0.66456 1.58685,0.95338 0.52638,0.30495 1.10762,0.47797 1.65966,0.72197 0.58163,0.27782 1.21834,0.3495 1.85247,0.39787 0.93579,0.17936 1.88222,0.28706 2.8318,0.35676 0.82115,0.0527 1.64425,0.0572 2.46675,0.06 0.76425,7.9e-4 1.5285,-0.001 2.29274,-0.002 0.7625,-8e-4 1.525,-9.4e-4 2.2875,-0.001 0.7633,-6e-5 1.52659,-4e-5 2.28988,-4e-5 0.76336,10e-6 1.52673,2e-5 2.2901,2e-5 0.76336,0 1.52672,0 2.29008,0 0.76336,0 1.52672,0 2.29008,0 0.77822,2.2e-4 1.55645,-6.3e-4 2.33468,7.6e-4 0.92467,0.0519 1.83392,-0.12941 2.74818,-0.23821 1.00423,-0.10384 2.01393,-0.12377 3.02255,-0.13843 0.86322,0.001 1.71091,-0.19665 2.567,-0.29302 0.76686,-0.0772 1.53808,-0.0875 2.3081,-0.0949 0.76236,-0.004 1.52474,-0.002 2.28711,-0.001 0.77398,0.0621 1.52122,-0.0561 2.28014,-0.18399 0.77232,-0.14692 1.56205,-0.12194 2.33657,-0.23858 0.83387,-0.19305 1.70409,-0.17159 2.53547,-0.35948 0.66831,-0.19695 1.35695,-0.28051 2.0495,-0.3276 0,0 -1.51901,1.12125 -1.51901,1.12125 l 0,0 c -0.68847,0.0575 -1.36717,0.16638 -2.03543,0.3453 -0.84164,0.14336 -1.70067,0.17846 -2.53956,0.34817 -0.77698,0.0933 -1.56385,0.0967 -2.33496,0.24493 -0.76397,0.12774 -1.5226,0.2056 -2.29918,0.15876 -0.76192,-8.9e-4 -1.52387,-0.003 -2.28577,0.003 -0.76609,0.01 -1.5334,0.0246 -2.29553,0.11027 -0.85637,0.10405 -1.70764,0.29071 -2.57386,0.2744 -1.00526,0.0161 -2.01184,0.0413 -3.01172,0.15499 -0.91862,0.11277 -1.83419,0.27469 -2.76382,0.2216 -0.77892,0.001 -1.55785,5.5e-4 -2.33678,7.6e-4 -0.76336,0 -1.52672,0 -2.29008,0 -0.76336,0 -1.52672,0 -2.29008,0 -0.76337,0 -1.52673,0 -2.2901,-1e-5 -0.76329,-10e-6 -1.52658,-3e-5 -2.28987,6e-5 -0.76247,1.3e-4 -1.52494,3.3e-4 -2.28741,0.001 -0.76434,9.2e-4 -1.52868,0.003 -2.29302,7.5e-4 -0.82413,-0.005 -1.6489,-0.0133 -2.47122,-0.0737 -0.95103,-0.0777 -1.89579,-0.20208 -2.83778,-0.35408 -0.64972,-0.0602 -1.295,-0.15798 -1.88915,-0.44517 -0.56561,-0.22853 -1.13141,-0.44155 -1.66803,-0.73689 -0.55321,-0.29926 -1.11796,-0.5786 -1.607,-0.98018 -0.44632,-0.34249 -0.95891,-0.59021 -1.37101,-0.97816 -0.5322,-0.39067 -1.0146,-0.82353 -1.44587,-1.32443 -0.50626,-0.565 -0.94371,-1.19194 -1.51413,-1.69847 -0.68492,-0.62648 -1.28131,-1.34537 -2.00418,-1.93196 -0.87493,-0.83389 -1.804,-1.60145 -2.73348,-2.37331 0,0 1.60083,-1.00106 1.60083,-1.00106 z"
       inkscape:connector-curvature="0" />
    <path
       style="fill:#000000;fill-opacity:1;stroke:#000000;stroke-width:0;stroke-linecap:round;stroke-linejoin:round;stroke-miterlimit:4;stroke-opacity:1;stroke-dasharray:none"
       id="path3971"
       d="m 575.57777,401.96891 c -3.8628,-0.31367 -7.73402,-0.48718 -11.60694,-0.60936 -2.84513,-0.0816 -5.6914,-0.10611 -8.53755,-0.11068 -1.5473,0 -3.0946,0.004 -4.6419,0.006 -1.25484,-0.005 -2.46906,0.37797 -3.71151,0.54083 -1.35911,0.1496 -2.72801,0.16273 -4.09374,0.176 -1.31075,-0.12426 -2.55885,0.24515 -3.83647,0.45883 -1.18383,0.12071 -2.38867,0.3189 -3.47695,0.81853 -1.07482,0.46487 -2.50955,1.10581 2.10332,-1.24593 0.14543,-0.0741 -0.25941,0.20113 -0.36827,0.32277 -0.33239,0.37144 -0.57539,0.86765 -0.82112,1.29711 -0.404,1.03646 -0.82766,2.07613 -1.11113,3.15484 -0.1689,1.21139 -0.43912,2.39839 -0.81862,3.5615 -0.47042,1.28917 -0.971,2.57004 -1.54226,3.8185 -0.52314,1.15065 -1.20293,2.20087 -1.95586,3.21064 -0.90753,0.9941 -1.90802,1.89804 -2.85532,2.85606 -1.09264,1.10206 -2.32815,2.04043 -3.50918,3.04298 -1.03974,0.83149 -2.10659,1.62656 -3.14265,2.46357 -1.68339,1.25958 -9.20358,5.46295 -2.97796,1.88708 -0.20733,0.13302 -0.40887,0.27551 -0.62198,0.39906 -10.31072,5.87229 -1.42843,0.81351 -1.43633,0.8181 -1.23158,0.71566 -2.48774,1.38935 -3.70633,2.12692 -0.78807,0.47698 1.59915,-0.91566 2.41423,-1.34487 0.20009,-0.10536 -0.37811,0.24815 -0.56717,0.37223 -1.63395,1.27068 -9.77666,5.78494 -3.22741,2.07763 -0.90915,0.52298 -1.7274,1.18495 -2.49232,1.89867 -0.73714,0.68616 -1.45691,1.39253 -2.15749,2.11618 -1.51174,1.58508 -8.9586,5.4343 -2.53111,1.77995 -2.02634,1.41244 -3.51167,2.27251 -5.77145,2.56527 0,0 2.82955,-2.11987 2.82955,-2.11987 l 0,0 c 1.49642,-0.24881 4.86915,-1.85634 -0.36128,0.83268 1.15896,-0.67217 2.30137,-1.37374 3.47689,-2.01652 0.86866,-0.47498 -1.70103,1.01357 -2.55591,1.51293 -0.14752,0.0862 0.2945,-0.17407 0.43361,-0.27323 0.27659,-0.19715 0.56145,-0.3826 0.83624,-0.58224 0.13483,-0.098 0.25093,-0.21939 0.37639,-0.32908 0.66162,-0.76113 1.42181,-1.43783 2.15164,-2.13044 0.71777,-0.76721 1.56925,-1.43009 2.46785,-1.97012 1.16995,-0.68744 2.33833,-1.37755 3.50985,-2.06232 0.82998,-0.48513 -1.6504,0.98668 -2.48523,1.46342 -1.68282,0.961 3.9267,-2.5036 2.20869,-1.4799 2.61806,-1.67666 -4.97427,3.1772 4.18812,-2.52563 0.762,-0.47428 -3.1042,1.80366 -2.32607,1.35635 12.54971,-7.21416 -1.74027,1.03245 2.04992,-1.21561 1.20082,-0.69624 2.39703,-1.4005 3.60247,-2.08871 0.83391,-0.47611 -1.65108,0.98132 -2.48787,1.45235 -1.34409,0.75661 1.17007,-0.79264 1.38183,-0.92954 0.15831,-0.10234 0.32905,-0.18404 0.49358,-0.27606 1.06031,-0.80737 2.07891,-1.66847 3.15471,-2.45701 1.19527,-0.97935 2.4001,-1.94898 3.5204,-3.01488 0.95891,-0.931 1.87886,-1.89982 2.86835,-2.8014 0.7301,-1.01056 1.48192,-1.99414 1.98909,-3.14648 0.56845,-1.24195 1.09057,-2.50222 1.55616,-3.78674 0.41363,-1.14189 0.68501,-2.32743 0.83007,-3.53211 0.25837,-1.11417 0.71769,-2.1521 1.06953,-3.23594 1.14375,-2.19774 2.32314,-3.09638 5.09957,-4.01184 1.1389,-0.40473 2.31847,-0.63404 3.51981,-0.7564 1.28292,-0.23231 2.55019,-0.51745 3.86624,-0.41017 1.3586,-0.0183 2.72112,-0.039 4.07042,-0.21501 1.24323,-0.18664 2.46982,-0.55212 3.7368,-0.49866 1.54347,-0.001 3.08696,-0.004 4.63042,0.005 2.83195,0.02 5.6637,0.0669 8.49445,0.15416 3.8879,0.13329 7.77156,0.33729 11.65511,0.56031 0,0 -2.84993,2.0706 -2.84993,2.0706 z"
       inkscape:connector-curvature="0" />
    <path
       style="fill:#000000;fill-opacity:1;stroke:#000000;stroke-width:0;stroke-linecap:round;stroke-linejoin:round;stroke-miterlimit:4;stroke-opacity:1;stroke-dasharray:none"
       id="path3973"
       d="m 518.4425,435.50277 c 1.85013,-0.41858 3.65881,-0.96711 5.48621,-1.4703 1.46771,-0.55555 2.98697,-1.02584 4.40021,-1.71024 0.19889,-0.0904 0.78426,-0.38306 0.59667,-0.27111 -5.18839,3.09642 -1.50097,0.80305 -0.40939,-0.0806 1.40068,-1.19783 2.70481,-2.50271 4.01354,-3.79876 1.1293,-1.13393 2.10367,-2.38816 3.0669,-3.65988 0.84002,-1.15868 1.69172,-2.30578 2.43558,-3.52963 0.70702,-1.21595 0.86661,-2.62072 1.2473,-3.9512 0.31258,-1.39108 0.87611,-2.67511 1.63297,-3.87635 1.04568,-1.63545 2.48897,-2.87876 3.97969,-4.0849 2.16828,-1.58686 4.55135,-2.97534 7.13731,-3.74012 1.56349,-0.56555 3.19351,-0.86091 4.84133,-1.0317 1.31946,-0.0967 2.58717,-0.49298 3.90038,-0.6656 0.65724,-0.17921 1.31936,-0.33556 1.98472,-0.48099 0,0 -2.8107,2.13844 -2.8107,2.13844 l 0,0 c -0.66818,0.15382 -1.33194,0.32596 -2.00442,0.46046 -1.30478,0.19842 -2.57779,0.58059 -3.90004,0.65205 -1.63729,0.19396 -3.24802,0.52749 -4.80309,1.08782 -0.7033,0.2317 -0.67636,0.20677 -1.36267,0.49791 -0.22825,0.0968 -0.88491,0.44171 -0.67909,0.30348 4.62165,-3.10399 1.99438,-1.14864 0.9597,-0.53448 -1.47094,1.20284 -2.96471,2.35882 -4.01527,3.98076 -0.7772,1.15997 -1.37047,2.40406 -1.6661,3.77744 -0.3972,1.35138 -0.56303,2.77107 -1.21758,4.03562 -0.72021,1.24839 -1.58419,2.39302 -2.41376,3.56907 -1.00315,1.25233 -1.9117,2.57772 -3.0653,3.70802 -1.30623,1.298 -2.60816,2.60304 -3.98862,3.82292 -1.86823,1.57927 -4.00665,2.84443 -6.22595,3.86761 -1.44729,0.6206 -2.92879,1.17155 -4.42574,1.66032 -1.8335,0.51743 -3.6612,1.04779 -5.52648,1.44327 0,0 2.83169,-2.11937 2.83169,-2.11937 z"
       inkscape:connector-curvature="0" />
    <path
       style="fill:#000000;fill-opacity:1;stroke:#000000;stroke-width:0;stroke-linecap:round;stroke-linejoin:round;stroke-miterlimit:4;stroke-opacity:1;stroke-dasharray:none"
       id="path3975"
       d="m 493.79333,419.04032 c 1.552,-1.5066 3.0564,-3.05937 4.492,-4.67717 1.05254,-1.12544 2.0784,-2.28304 3.03472,-3.49174 0.91903,-1.03988 1.71043,-2.17924 2.50918,-3.31116 0.68606,-1.17244 1.30709,-2.38727 1.8046,-3.65173 0.31084,-1.0369 0.73966,-2.02663 1.01888,-3.07338 0,0 3.18922,-1.52652 3.18922,-1.52652 l 0,0 c -0.25713,1.06926 -0.698,2.06064 -1.00668,3.11236 -0.47378,1.29467 -1.11785,2.51249 -1.76496,3.72761 -0.77851,1.1505 -1.58517,2.29198 -2.50986,3.3315 -0.92824,1.2356 -1.97481,2.39285 -3.03432,3.51578 -1.41478,1.63189 -2.93515,3.1668 -4.46503,4.69091 0,0 -3.26775,1.35354 -3.26775,1.35354 z"
       inkscape:connector-curvature="0" />
    <path
       style="fill:#000000;fill-opacity:1;stroke:#000000;stroke-width:0;stroke-linecap:round;stroke-linejoin:round;stroke-miterlimit:4;stroke-opacity:1;stroke-dasharray:none"
       id="path3977"
       d="m 477.43748,415.52183 c 1.86724,-1.16167 3.78579,-2.23221 5.69199,-3.32959 0.68217,-0.39272 -1.35372,0.80457 -2.04727,1.17684 -0.63206,0.33927 1.21118,-0.76954 1.80424,-1.17314 1.31123,-1.01898 2.46701,-2.2583 3.35336,-3.66408 0.57837,-1.10117 0.97734,-2.28109 1.53545,-3.38984 0.61166,-1.41214 1.4367,-2.71592 2.06068,-4.12123 0.64574,-1.39754 1.17301,-2.85188 1.98361,-4.16501 0.82858,-1.27133 1.78329,-2.44936 2.59584,-3.73199 0.56258,-0.90288 0.29341,-0.44802 0.80827,-1.36413 0,0 3.21849,-1.44115 3.21849,-1.44115 l 0,0 c -0.50284,0.93613 -0.23608,0.47594 -0.80059,1.38039 -0.78536,1.3035 -1.74429,2.4773 -2.59048,3.73928 -0.87241,1.26303 -1.35366,2.72909 -2.00852,4.10947 -0.59373,1.42725 -1.45212,2.71774 -2.04622,4.14422 -0.59641,1.09575 -0.97771,2.28894 -1.5272,3.40821 -0.83477,1.46961 -2.03386,2.72148 -3.31562,3.8114 -1.85876,1.30205 -3.74896,2.34202 -5.75248,3.48612 -0.68289,0.38996 1.35012,-0.80718 2.03665,-1.19069 0.57964,-0.32379 -2.09432,1.27251 -1.70701,1.02639 0,0 -3.29319,1.28853 -3.29319,1.28853 z"
       inkscape:connector-curvature="0" />
    <path
       style="fill:#000000;fill-opacity:1;stroke:#000000;stroke-width:0;stroke-linecap:round;stroke-linejoin:round;stroke-miterlimit:4;stroke-opacity:1;stroke-dasharray:none"
       id="path3969-0"
       d="m 409.89859,374.45424 c -0.91445,0.79423 -1.8527,1.55416 -2.7302,2.39007 -0.73123,0.57596 -1.31645,1.30576 -2.00725,1.92442 -0.57635,0.50995 -1.01185,1.14744 -1.52951,1.71081 -0.42359,0.49185 -0.89625,0.91592 -1.42625,1.28988 -0.41171,0.3944 -0.93574,0.62787 -1.37678,0.98424 -0.48483,0.38988 -1.03949,0.66456 -1.58685,0.95338 -0.52638,0.30495 -1.10762,0.47797 -1.65966,0.72197 -0.58163,0.27782 -1.21834,0.3495 -1.85247,0.39787 -0.93579,0.17936 -1.88222,0.28706 -2.8318,0.35676 -0.82115,0.0527 -1.64425,0.0572 -2.46675,0.06 -0.76425,7.9e-4 -1.5285,-0.001 -2.29274,-0.002 -0.7625,-8e-4 -1.525,-9.4e-4 -2.2875,-0.001 -0.7633,-6e-5 -1.52659,-4e-5 -2.28988,-4e-5 -0.76336,1e-5 -1.52673,2e-5 -2.2901,2e-5 -0.76336,0 -1.52672,0 -2.29008,0 -0.76336,0 -1.52672,0 -2.29008,0 -0.77822,2.2e-4 -1.55645,-6.3e-4 -2.33468,7.6e-4 -0.92467,0.0519 -1.83392,-0.12941 -2.74818,-0.23821 -1.00423,-0.10384 -2.01393,-0.12377 -3.02255,-0.13843 -0.86322,0.001 -1.71091,-0.19665 -2.567,-0.29302 -0.76686,-0.0772 -1.53808,-0.0875 -2.3081,-0.0949 -0.76236,-0.004 -1.52474,-0.002 -2.28711,-10e-4 -0.77398,0.0621 -1.52122,-0.0561 -2.28014,-0.18399 -0.77232,-0.14692 -1.56205,-0.12194 -2.33657,-0.23858 -0.83387,-0.19305 -1.70409,-0.17159 -2.53547,-0.35948 -0.66831,-0.19695 -1.35695,-0.28051 -2.0495,-0.3276 0,0 1.51901,1.12125 1.51901,1.12125 l 0,0 c 0.68847,0.0575 1.36717,0.16638 2.03543,0.3453 0.84164,0.14336 1.70067,0.17846 2.53956,0.34817 0.77698,0.0933 1.56385,0.0967 2.33496,0.24493 0.76397,0.12774 1.5226,0.2056 2.29918,0.15876 0.76192,-8.9e-4 1.52387,-0.003 2.28577,0.003 0.76609,0.01 1.5334,0.0246 2.29553,0.11027 0.85637,0.10405 1.70764,0.29071 2.57386,0.2744 1.00526,0.0161 2.01184,0.0413 3.01172,0.15499 0.91862,0.11277 1.83419,0.27469 2.76382,0.2216 0.77892,10e-4 1.55785,5.5e-4 2.33678,7.6e-4 0.76336,0 1.52672,0 2.29008,0 0.76336,0 1.52672,0 2.29008,0 0.76337,0 1.52673,0 2.2901,-1e-5 0.76329,-10e-6 1.52658,-3e-5 2.28987,6e-5 0.76247,1.3e-4 1.52494,3.3e-4 2.28741,10e-4 0.76434,9.2e-4 1.52868,0.003 2.29302,7.5e-4 0.82413,-0.005 1.6489,-0.0133 2.47122,-0.0737 0.95103,-0.0777 1.89579,-0.20208 2.83778,-0.35408 0.64972,-0.0602 1.295,-0.15798 1.88915,-0.44517 0.56561,-0.22853 1.13141,-0.44155 1.66803,-0.73689 0.55321,-0.29926 1.11796,-0.5786 1.607,-0.98018 0.44632,-0.34249 0.95891,-0.59021 1.37101,-0.97816 0.5322,-0.39067 1.0146,-0.82353 1.44587,-1.32443 0.50626,-0.565 0.94371,-1.19194 1.51413,-1.69847 0.68492,-0.62648 1.28131,-1.34537 2.00418,-1.93196 0.87493,-0.83389 1.804,-1.60145 2.73348,-2.37331 0,0 -1.60083,-1.00106 -1.60083,-1.00106 z"
       inkscape:connector-curvature="0" />
    <path
       style="fill:#000000;fill-opacity:1;stroke:#000000;stroke-width:0;stroke-linecap:round;stroke-linejoin:round;stroke-miterlimit:4;stroke-opacity:1;stroke-dasharray:none"
       id="path3971-6"
       d="m 339.21196,400.6691 c 3.8628,-0.31367 7.73402,-0.48718 11.60694,-0.60936 2.84513,-0.0816 5.6914,-0.10611 8.53755,-0.11068 1.5473,0 3.0946,0.004 4.6419,0.006 1.25484,-0.005 2.46906,0.37797 3.71151,0.54083 1.35911,0.1496 2.72801,0.16273 4.09374,0.176 1.31075,-0.12426 2.55885,0.24515 3.83647,0.45883 1.18383,0.12071 2.38867,0.3189 3.47695,0.81853 1.07482,0.46487 2.50955,1.10581 -2.10332,-1.24593 -0.14543,-0.0741 0.25941,0.20113 0.36827,0.32277 0.33239,0.37144 0.57539,0.86765 0.82112,1.29711 0.404,1.03646 0.82766,2.07613 1.11113,3.15484 0.1689,1.21139 0.43912,2.39839 0.81862,3.5615 0.47042,1.28917 0.971,2.57004 1.54226,3.8185 0.52314,1.15065 1.20293,2.20087 1.95586,3.21064 0.90753,0.9941 1.90802,1.89804 2.85532,2.85606 1.09264,1.10206 2.32815,2.04043 3.50918,3.04298 1.03974,0.83149 2.10659,1.62656 3.14265,2.46357 1.68339,1.25958 9.20358,5.46295 2.97796,1.88708 0.20733,0.13302 0.40887,0.27551 0.62198,0.39906 10.31072,5.87229 1.42843,0.81351 1.43633,0.8181 1.23158,0.71566 2.48774,1.38935 3.70633,2.12692 0.78807,0.47698 -1.59915,-0.91566 -2.41423,-1.34487 -0.20009,-0.10536 0.37811,0.24815 0.56717,0.37223 1.63395,1.27068 9.77666,5.78494 3.22741,2.07763 0.90915,0.52298 1.7274,1.18495 2.49232,1.89867 0.73714,0.68616 1.45691,1.39253 2.15749,2.11618 1.51174,1.58508 8.9586,5.4343 2.53111,1.77995 2.02634,1.41244 3.51167,2.27251 5.77145,2.56527 0,0 -2.82955,-2.11987 -2.82955,-2.11987 l 0,0 c -1.49642,-0.24881 -4.86915,-1.85634 0.36128,0.83268 -1.15896,-0.67217 -2.30137,-1.37374 -3.47689,-2.01652 -0.86866,-0.47498 1.70103,1.01357 2.55591,1.51293 0.14752,0.0862 -0.2945,-0.17407 -0.43361,-0.27323 -0.27659,-0.19715 -0.56145,-0.3826 -0.83624,-0.58224 -0.13483,-0.098 -0.25093,-0.21939 -0.37639,-0.32908 -0.66162,-0.76113 -1.42181,-1.43783 -2.15164,-2.13044 -0.71777,-0.76721 -1.56925,-1.43009 -2.46785,-1.97012 -1.16995,-0.68744 -2.33833,-1.37755 -3.50985,-2.06232 -0.82998,-0.48513 1.6504,0.98668 2.48523,1.46342 1.68282,0.961 -3.9267,-2.5036 -2.20869,-1.4799 -2.61806,-1.67666 4.97427,3.1772 -4.18812,-2.52563 -0.762,-0.47428 3.1042,1.80366 2.32607,1.35635 -12.54971,-7.21416 1.74027,1.03245 -2.04992,-1.21561 -1.20082,-0.69624 -2.39703,-1.4005 -3.60247,-2.08871 -0.83391,-0.47611 1.65108,0.98132 2.48787,1.45235 1.34409,0.75661 -1.17007,-0.79264 -1.38183,-0.92954 -0.15831,-0.10234 -0.32905,-0.18404 -0.49358,-0.27606 -1.06031,-0.80737 -2.07891,-1.66847 -3.15471,-2.45701 -1.19527,-0.97935 -2.4001,-1.94898 -3.5204,-3.01488 -0.95891,-0.931 -1.87886,-1.89982 -2.86835,-2.8014 -0.7301,-1.01056 -1.48192,-1.99414 -1.98909,-3.14648 -0.56845,-1.24195 -1.09057,-2.50222 -1.55616,-3.78674 -0.41363,-1.14189 -0.68501,-2.32743 -0.83007,-3.53211 -0.25837,-1.11417 -0.71769,-2.1521 -1.06953,-3.23594 -1.14375,-2.19774 -2.32314,-3.09638 -5.09957,-4.01184 -1.1389,-0.40473 -2.31847,-0.63404 -3.51981,-0.7564 -1.28292,-0.23231 -2.55019,-0.51745 -3.86624,-0.41017 -1.3586,-0.0183 -2.72112,-0.039 -4.07042,-0.21501 -1.24323,-0.18664 -2.46982,-0.55212 -3.7368,-0.49866 -1.54347,-10e-4 -3.08696,-0.004 -4.63042,0.005 -2.83195,0.02 -5.6637,0.0669 -8.49445,0.15416 -3.8879,0.13329 -7.77156,0.33729 -11.65511,0.56031 0,0 2.84993,2.0706 2.84993,2.0706 z"
       inkscape:connector-curvature="0" />
    <path
       style="fill:#000000;fill-opacity:1;stroke:#000000;stroke-width:0;stroke-linecap:round;stroke-linejoin:round;stroke-miterlimit:4;stroke-opacity:1;stroke-dasharray:none"
       id="path3973-5"
       d="m 396.34723,434.20296 c -1.85013,-0.41858 -3.65881,-0.96711 -5.48621,-1.4703 -1.46771,-0.55555 -2.98697,-1.02584 -4.40021,-1.71024 -0.19889,-0.0904 -0.78426,-0.38306 -0.59667,-0.27111 5.18839,3.09642 1.50097,0.80305 0.40939,-0.0806 -1.40068,-1.19783 -2.70481,-2.50271 -4.01354,-3.79876 -1.1293,-1.13393 -2.10367,-2.38816 -3.0669,-3.65988 -0.84002,-1.15868 -1.69172,-2.30578 -2.43558,-3.52963 -0.70702,-1.21595 -0.86661,-2.62072 -1.2473,-3.9512 -0.31258,-1.39108 -0.87611,-2.67511 -1.63297,-3.87635 -1.04568,-1.63545 -2.48897,-2.87876 -3.97969,-4.0849 -2.16828,-1.58686 -4.55135,-2.97534 -7.13731,-3.74012 -1.56349,-0.56555 -3.19351,-0.86091 -4.84133,-1.0317 -1.31946,-0.0967 -2.58717,-0.49298 -3.90038,-0.6656 -0.65724,-0.17921 -1.31936,-0.33556 -1.98472,-0.48099 0,0 2.8107,2.13844 2.8107,2.13844 l 0,0 c 0.66818,0.15382 1.33194,0.32596 2.00442,0.46046 1.30478,0.19842 2.57779,0.58059 3.90004,0.65205 1.63729,0.19396 3.24802,0.52749 4.80309,1.08782 0.7033,0.2317 0.67636,0.20677 1.36267,0.49791 0.22825,0.0968 0.88491,0.44171 0.67909,0.30348 -4.62165,-3.10399 -1.99438,-1.14864 -0.9597,-0.53448 1.47094,1.20284 2.96471,2.35882 4.01527,3.98076 0.7772,1.15997 1.37047,2.40406 1.6661,3.77744 0.3972,1.35138 0.56303,2.77107 1.21758,4.03562 0.72021,1.24839 1.58419,2.39302 2.41376,3.56907 1.00315,1.25233 1.9117,2.57772 3.0653,3.70802 1.30623,1.298 2.60816,2.60304 3.98862,3.82292 1.86823,1.57927 4.00665,2.84443 6.22595,3.86761 1.44729,0.6206 2.92879,1.17155 4.42574,1.66032 1.8335,0.51743 3.6612,1.04779 5.52648,1.44327 0,0 -2.83169,-2.11937 -2.83169,-2.11937 z"
       inkscape:connector-curvature="0" />
    <path
       style="fill:#000000;fill-opacity:1;stroke:#000000;stroke-width:0;stroke-linecap:round;stroke-linejoin:round;stroke-miterlimit:4;stroke-opacity:1;stroke-dasharray:none"
       id="path3975-5"
       d="m 420.9964,417.74051 c -1.552,-1.5066 -3.0564,-3.05937 -4.492,-4.67717 -1.05254,-1.12544 -2.0784,-2.28304 -3.03472,-3.49174 -0.91903,-1.03988 -1.71043,-2.17924 -2.50918,-3.31116 -0.68606,-1.17244 -1.30709,-2.38727 -1.8046,-3.65173 -0.31084,-1.0369 -0.73966,-2.02663 -1.01888,-3.07338 0,0 -3.18922,-1.52652 -3.18922,-1.52652 l 0,0 c 0.25713,1.06926 0.698,2.06064 1.00668,3.11236 0.47378,1.29467 1.11785,2.51249 1.76496,3.72761 0.77851,1.1505 1.58517,2.29198 2.50986,3.3315 0.92824,1.2356 1.97481,2.39285 3.03432,3.51578 1.41478,1.63189 2.93515,3.1668 4.46503,4.69091 0,0 3.26775,1.35354 3.26775,1.35354 z"
       inkscape:connector-curvature="0" />
    <path
       style="fill:#000000;fill-opacity:1;stroke:#000000;stroke-width:0;stroke-linecap:round;stroke-linejoin:round;stroke-miterlimit:4;stroke-opacity:1;stroke-dasharray:none"
       id="path3977-7"
       d="m 437.35225,414.22202 c -1.86724,-1.16167 -3.78579,-2.23221 -5.69199,-3.32959 -0.68217,-0.39272 1.35372,0.80457 2.04727,1.17684 0.63206,0.33927 -1.21118,-0.76954 -1.80424,-1.17314 -1.31123,-1.01898 -2.46701,-2.2583 -3.35336,-3.66408 -0.57837,-1.10117 -0.97734,-2.28109 -1.53545,-3.38984 -0.61166,-1.41214 -1.4367,-2.71592 -2.06068,-4.12123 -0.64574,-1.39754 -1.17301,-2.85188 -1.98361,-4.16501 -0.82858,-1.27133 -1.78329,-2.44936 -2.59584,-3.73199 -0.56258,-0.90288 -0.29341,-0.44802 -0.80827,-1.36413 0,0 -3.21849,-1.44115 -3.21849,-1.44115 l 0,0 c 0.50284,0.93613 0.23608,0.47594 0.80059,1.38039 0.78536,1.3035 1.74429,2.4773 2.59048,3.73928 0.87241,1.26303 1.35366,2.72909 2.00852,4.10947 0.59373,1.42725 1.45212,2.71774 2.04622,4.14422 0.59641,1.09575 0.97771,2.28894 1.5272,3.40821 0.83477,1.46961 2.03386,2.72148 3.31562,3.8114 1.85876,1.30205 3.74896,2.34202 5.75248,3.48612 0.68289,0.38996 -1.35012,-0.80718 -2.03665,-1.19069 -0.57964,-0.32379 2.09432,1.27251 1.70701,1.02639 0,0 3.29319,1.28853 3.29319,1.28853 z"
       inkscape:connector-curvature="0" />
    <path
       style="color:#000000;fill:#000000;fill-opacity:1;fill-rule:nonzero;stroke:#000000;stroke-width:0.5;stroke-linecap:round;stroke-linejoin:round;stroke-miterlimit:4;stroke-opacity:1;stroke-dasharray:none;stroke-dashoffset:0;marker:none;visibility:visible;display:inline;overflow:visible;enable-background:accumulate"
       id="path4065"
       d="M 356.90625 303.46875 C 357.13654 303.60912 356.90119 303.33726 356.90625 303.46875 z M 366.71875 307 C 370.21143 308.36922 373.71219 309.72341 377.12285 311.28952 C 382.75867 313.77577 388.38813 316.2764 393.98414 318.85128 C 399.73153 321.46378 405.46483 324.11006 411.26116 326.61248 C 413.19243 327.42321 415.15255 328.17071 417.13091 328.85684 C 419.42943 329.6118 421.75487 330.28334 424.10487 330.86035 C 425.86941 331.25457 427.64328 331.62567 429.4313 331.89839 C 430.7848 332.07125 432.15916 332.28518 433.51963 332.05337 C 434.79239 331.85487 435.98657 331.321 437.17344 330.84008 C 438.6607 330.16266 440.12134 329.42252 441.56685 328.66132 C 443.85674 327.36548 445.90526 325.6867 447.86268 323.93981 C 450.3307 321.66766 452.5766 319.16885 454.86891 316.7229 C 456.016 315.45056 457.23713 314.24513 458.34375 312.9375 C 458.91578 312.3044 459.82029 311.85412 460.67343 312.15156 C 461.61484 312.39186 462.10351 313.33621 462.6875 314.03125 C 465.97608 318.05226 469.29465 322.04971 472.59375 326.0625 C 473.865 327.17843 475.27349 328.12555 476.71875 329 C 477.9335 329.51237 479.21842 329.83375 480.49236 330.1577 C 482.1578 330.50779 483.87225 330.57669 485.56196 330.37951 C 488.35309 330.18482 491.16307 329.84619 493.8187 328.92502 C 496.54477 328.03122 499.14462 326.80441 501.75521 325.62578 C 505.15537 324.03072 508.56705 322.46021 511.9678 320.86634 C 514.23422 319.8439 516.47259 318.75509 518.80559 317.88887 C 520.41945 317.22457 522.08039 316.6896 523.75465 316.20164 C 528.06819 314.83933 532.49281 313.87412 536.86549 312.72602 C 542.81623 311.18617 548.82018 309.86555 554.8125 308.5 C 555.46595 308.22174 556.46425 308.47712 556.8125 307.6875 C 555.53507 307.51856 554.34824 308.14552 553.09375 308.25 C 548.56426 309.03162 544.05806 309.94832 539.57346 310.95371 C 533.7454 312.51749 527.94734 314.19247 522.16372 315.91255 C 518.31215 317.04658 514.64494 318.7011 511.00012 320.36526 C 505.79141 322.76368 500.6031 325.21009 495.38016 327.57545 C 494.14043 328.09165 492.82094 328.3935 491.50705 328.65426 C 489.29111 329.02524 487.02665 329.17476 484.78663 328.95291 C 483.36608 328.86281 481.95278 328.67115 480.58201 328.27831 C 479.08938 327.84435 477.70433 327.08603 476.49876 326.10845 C 474.68472 324.70389 473.11649 323.00988 471.62716 321.27199 C 468.72003 317.8278 465.91673 314.29762 463.02756 310.83833 C 462.58692 310.04835 461.61885 309.82279 460.78125 309.96875 C 459.78294 310.30402 459.08164 311.17719 458.216 311.74866 C 456.47897 313.18385 454.79301 314.68271 453.12351 316.19448 C 452.15196 317.20312 451.26117 318.28728 450.25101 319.25933 C 449.63789 319.96901 448.81689 320.42905 448.12246 321.05789 C 446.32481 322.55881 444.57715 324.14838 442.53125 325.3125 C 440.20588 326.81413 437.61557 327.82287 435.09375 328.9375 C 434.02217 329.3268 432.93967 329.74965 431.78706 329.80144 C 430.39129 329.98259 428.98983 329.72233 427.60028 329.59915 C 426.29938 329.43002 425.011 329.16544 423.73104 328.88535 C 421.48935 328.25997 419.29061 327.49862 417.10802 326.69333 C 411.76273 324.77609 406.59427 322.41276 401.39539 320.13806 C 393.04699 316.38371 384.67926 312.67182 376.28751 309.01563 C 374.76389 308.38342 373.22808 307.77669 371.6844 307.19688 C 367.71129 305.80101 363.57285 304.97785 359.45625 304.13654 C 359.37628 304.1222 358.82798 304.03967 359.26457 304.15886 C 361.7493 305.10591 364.23402 306.05295 366.71875 307 z "
       inkscape:connector-curvature="0" />
  </g>
</svg>
